<?xml version="1.0" encoding="utf-8"?>
<!-- Generator: Adobe Illustrator 23.0.3, SVG Export Plug-In . SVG Version: 6.00 Build 0)  -->
<svg version="1.1" id="Capa_1" xmlns="http://www.w3.org/2000/svg" xmlns:xlink="http://www.w3.org/1999/xlink" x="0px" y="0px"
	 viewBox="0 0 1200 1200" enable-background="new 0 0 1200 1200" xml:space="preserve">
<path d="M414.944,737.467c-0.373-2.975,134.174-17.967,199.306-18.349l348.552-2.036c0.011,0,0.021,0,0.032,0
	c2.984,0,10.986,6.437,11.004,9.425c0.017,2.998-359.525,3.469-359.525,3.469c-64.716,0.379-133.368,4.714-193.31,12.205
	c-0.227,0.029-0.454,0.042-0.679,0.042C417.625,742.223,415.286,740.215,414.944,737.467z M292.114,205.598
	c32.209,3.943,105.751,26.212,105.789,23.784c0.032-1.754-0.589-4.999-5.084-6.997c-31.603-14.086-65.041-23.361-99.387-27.563
	c-2.952-0.394-5.684,1.751-6.047,4.729C287.02,202.526,289.138,205.234,292.114,205.598z M193.877,996.392
	c-14.766,2.884-31.349,1.232-52.19-5.208c-17.784-5.496-34.886-13.037-52.858-17.952c-2.892-0.791-5.879,0.907-6.673,3.799
	c-2.004,7.36,51.457,23.021,56.327,24.526c15.325,4.737,28.652,6.749,40.811,7.063
	C190.637,1008.914,196.838,995.812,193.877,996.392z M788.98,745.448c-22.13-0.386-44.552,0.356-66.233,1.071
	c0,0-274.221,11.481-274.123,14.477c0.097,2.936,2.507,5.25,5.423,5.25c0.061,0,0.121-0.002,0.182-0.003l268.876-8.872
	c21.546-0.712,43.824-1.45,65.687-1.068c32.295,0.562,64.823,3.57,96.679,8.939c2.961,0.498,5.758-1.494,6.256-4.451
	C892.225,757.835,821.816,746.019,788.98,745.448z M967.822,886.468c-40.698-20.038-87.031-14.242-131.841-8.639
	c-7.183,0.9-14.331,1.794-21.413,2.575c-43.579,4.802-88.297,4.861-131.545,4.917l-324.506-0.182
	c-2.998,0.005,6.253,11.449,9.247,11.449c0.002,0,315.274-0.409,315.274-0.409c43.535-0.058,88.553-0.115,132.72-4.984
	c7.133-0.786,59.791-5.151,67.027-6.057c43.223-5.409,86.565,10.516,87.509,8.597C971.62,891.045,970.512,887.792,967.822,886.468z
	 M961.97,915.958c-58.307-3.371-116.658-6.46-175.072-6.984c-29.47-0.265-58.95,0.121-88.393,1.452
	c-27.879,1.26-55.743,5.123-83.618,5.738c-9.802,0.217-19.704-0.359-29.266-2.645c-9.159-2.19-17.689-6.926-27.094-8.041
	c-19.415-2.301-41.276,7.462-60.642,9.739c-22.257,2.617-72.626,1.404-73.003,4.38c-0.376,2.975,1.73,5.691,4.705,6.068
	c12.074,1.528,24.155,2.29,36.216,2.29c16.178,0,32.468-0.858,48.358-4.067c14.074-2.842,28.054-8.877,42.648-7.63
	c14.451,1.235,27.439,9.109,41.931,10.362c27.341,2.364,55.222-2.973,82.504-4.699c29.07-1.839,58.203-2.572,87.328-2.559
	c64.324,0.029,198.33,5.318,198.504,2.328C967.249,918.698,964.964,916.13,961.97,915.958z M492.67,565.474
	c-2.996,0.104-5.391,2.513-5.347,5.511c0.047,2.999,269.756,11.344,276.342,11.962c26.407,2.481,43.728,0.579,70.037,0.577
	c38.179,0,79.672-2.845,115.951-14.227c2.861-0.897,3.599-4.735,2.162-7.366c-1.438-2.633-124.03,16.134-187.135,10.207
	C758.072,571.517,628.831,560.761,492.67,565.474z M233.655,729.813c2.744-6.601-0.409-14.775-11.047-21.776
	c-5.3-3.488-10.991-6.476-16.463-9.69c10.037-4.155,20.298-7.973,30.171-12.5c6.377-2.924,13.422-6.701,13.593-14.731
	c0.261-12.2-13.507-14.632-22.657-16.155c6.478-1.929,13.993-10.346,17.322-16.073c6.116-10.52-3.973-13.526-10.949-20.273
	c-9.92-9.595-13.94-22.196-4.219-33.485c3.288-3.818,10.613-10.433,15.766-9.895c7.011,0.732,11.594,6.789,20.018,5.522
	c14.466-2.175,12.733-16.286,0.077-19.955c-5.453-1.581-15.546,2.664-19.261,0.281c-5.048-3.238-3.593-13.897-1.673-18.279
	c5.153-11.767,16.562-14.368,27.793-16.39c18.981-3.416-3.298-13.395-7.308-21.217c-7.057-13.766,1.564-26.32,14.658-31.026
	c4.762-1.712,8.106-1.24,9.156-6.876c0.852-4.577-8.623-28.119-14.286-24.432c-3.236,2.107,2.21,20.558,1.807,20.679
	c-24.356,7.314-30.991,34.111-16.433,53.668c-20.759,8.655-34.925,26.501-23.445,49.071c-11.429,7.935-22.989,16.354-23.659,31.735
	c-0.668,15.339,10.462,26.534,21.583,35.385c-6.031,5.146-14.895,11.468-19.263,18.074c-11.834,17.898,25.917,10.889,23.811,20.289
	c-0.876,3.909-18.331,8.918-21.312,10.153c-7.255,3.006-19.115,5.407-25.184,10.435c-16.008,13.261,42.134,25.156,30.066,36.292
	c-4.088,3.772-18.733,3.69-23.672,4.468c-7.721,1.216-19.887,0.765-26.931,4.242c-15.491,7.647,10.24,45.6,19.753,41.626
	c1.302-0.544,15.815-1.695,6.032-9.028c-8.182-6.132-14.852-13.014-18.356-22.873c11.947-1.269,24.072-3.513,35.952-5.568
	C224.838,739.826,231.342,735.378,233.655,729.813z M467.21,602.785c-2.991,0.214-12.886,4.782-12.661,7.771
	c0.215,2.852,236.464-7.009,347.333-2.062c3.025,0.133,8.578-4.472,5.665-5.181C781.773,597.04,667.245,588.504,467.21,602.785z
	 M1149.98,891.385c-2.121,35.957-5.992,72.23-11.505,107.812c-0.589,3.801-3.864,6.568-7.659,6.568
	c-0.168,0-201.393-5.676-344.592-7.177c-215.002-2.254-457.818-4.798-547.494-17.399c-1.888,8.682-3.683,17.107-5.372,25.236
	c-5.291,25.461-21.472,31.341-42.461,31.341c-8.633,0-18.076-0.994-27.915-2.03l-0.333-0.035
	c-38.504-4.054-82.623-19.571-88.932-21.739C65.678,1011.2,49.91,991.502,50,982.316c0.144-14.224,11.955-53.595,26.21-99.76
	c4.014-13.001,7.482-24.229,8.857-29.513c22.631-86.857,45.997-184.612,68.593-279.15c38.305-160.26,74.485-311.634,105.679-406.328
	c1.201-3.651,4.89-5.88,8.686-5.215c4.343,0.75,106.808,18.517,147.162,32.345c0,0.002,0,0.002,0,0.002
	c9.502,3.257,20.156,15.072,22.195,17.408c1.731,1.983,2.339,4.708,1.613,7.239c-0.73,2.543-35.738,124.769-77.813,279.201
	c259.972-22.094,506.968-25.074,696.719-8.33c6.965,0.613,21.392,10.999,25.818,16.679c2.316,2.972,3.254,5.958,2.786,8.872
	c-1.492,9.325-2.983,19.002-4.491,28.863c-0.589,3.866-11.745,6.477-17.765,6.32c-3.99,19.849-8.118,40.215-12.524,59.917
	c3.497-0.119,6.979-0.238,10.428-0.356c2.348-0.076,8.309,6.792,7.904,9.095c-1.048,5.954-2.063,11.483-3.071,16.771
	c3.755,1.207,10.011,4.638,20.244,14.122c1.172,1.086,4.42,14.015,6.868,30.099c0.335,2.199-5.238,8.86-7.463,8.919l-27.085,0.716
	l7.932,28.12c0.182,0.645-2.91,66.257-2.91,66.257s27.021,0.101,27.786,0.347c0,0,19.844,7.344,20.742,9.364
	c3.131,7.046,3.698,23.57,3.486,38.321c2.152,0.81,4.067,1.662,5.678,2.565C1132.906,841.169,1150.674,879.628,1149.98,891.385z
	 M1046.753,690.57L413.6,707.3c-25.97,5.609-56.019,13.215-64.763,16.966c-0.667,10.001-1.132,39.082-1.33,60.99l704.641-0.635
	l3.116-63.875L1046.753,690.57z M1074.863,660.226c-4.746-4.188-9.893-8.003-12.07-8.915
	c-108.879,7.315-220.37,9.804-328.204,12.209c-107.932,2.407-219.537,4.897-328.33,12.232c-23.992,1.617-68.99,10.461-96.775,16.279
	c-11.409,43.695-22.559,87.213-32.959,128.975c132.262-0.951,676.529-4.792,695.538-3.69c3.301,0.191,8.048,0.404,13.839,0.664
	c44.585,2,88.136,4.706,115.193,10.38c0.015-11.548-0.566-20.192-1.387-24.765l-10.922-3.496l-749.09,0.676
	c-0.003,0-0.006,0-0.008,0c-2.065,0-4.044-0.823-5.5-2.287c-1.457-1.466-2.269-3.452-2.256-5.52
	c0.073-10.938,0.506-65.925,1.887-74.207c0.901-5.418,1.754-10.538,77.221-26.777c0.47-0.101,0.947-0.159,1.427-0.171
	l664.913-17.569C1076.298,667.712,1075.389,662.904,1074.863,660.226z M1083.182,950.998c4.609-2.122,15.786-14.798,15.792-18.98
	l0.068-49.453c-0.568-1.747-3.558-5.712-5.138-7.071c-87.634-18.567-178.876-17.744-267.121-16.955l-311.216,2.796
	c-65.282,0.586-185.309,5.555-236.979,7.805l-3.842,31.51l5.692,39.844C424.067,942.444,862.844,948.369,1083.182,950.998z
	 M264.538,869.758c-5.925,24.44-11.497,47.987-16.608,70.293c5.306,0.072,11.952,0.163,19.947,0.271l-5.533-38.733
	c-0.077-0.539-0.082-1.088-0.017-1.628l3.692-30.27C265.507,869.715,265.021,869.736,264.538,869.758z M1051.657,550.623
	c-92.143-2.377-438.492-11.024-487.194-7.975c-49.184,3.074-134.003,10.228-155.148,12.031l-18.694,49.85
	c1.787,4.781,7.406,16.413,20.944,20.925c19.288,4.565,377.185-5.691,627.353-14.152
	C1043.404,591.461,1047.6,570.799,1051.657,550.623z M356.847,514.482c-13.986,51.478-28.634,106.112-42.979,160.799
	c28.293-5.814,68.563-13.469,91.35-15.004c109.139-7.359,220.923-9.854,329.026-12.265c104.171-2.323,211.741-4.767,316.924-11.526
	c0.637-3.284,1.275-6.63,1.92-10.145c-124.686,4.249-625.426,20.836-646.428,13.827c-25.111-8.369-31.511-32.916-31.771-33.957
	c-0.382-1.527-0.291-3.133,0.262-4.605l21.36-56.962c1.05-2.799,3.616-4.747,6.595-5.003c1.033-0.089,103.989-8.949,160.391-12.474
	c51.262-3.2,502.422,8.308,504.221,8.356c1.039-6.758,2.072-13.409,3.104-19.9c-3.025-3.227-11.635-9.019-14.648-9.989
	C865.953,488.878,617.862,492.035,356.847,514.482z M295.116,685.681c-0.035-1.46,0.357-2.854,1.063-4.067
	c15.273-58.389,120.04-439.01,126.702-462.334c-4.051-4.128-9.422-8.778-12.721-9.91v0.002
	c-33.442-11.461-114.473-26.341-138.167-30.57C241.47,273.244,206.121,421.136,168.746,577.5
	c-22.614,94.612-45.998,192.445-68.667,279.455c-1.465,5.618-4.811,16.457-9.048,30.178c-9.398,30.434-25.061,81.16-25.511,94.921
	c1.159,4.038,10.122,15.608,13.491,17.341c6.097,2.08,48.564,17.017,85.262,20.88l0.333,0.035
	c36.379,3.831,49.176,4.079,53.565-17.041C220.133,993.824,268.627,787.061,295.116,685.681z M1134.496,890.473
	c0.295-7.003-14.431-37.88-19.947-41.819c-1.134-0.635-10.167-2.601-11.529-4.056c-28.543-7.113-89.422-9.848-117.813-11.122
	c-5.874-0.264-398.28,0.806-712.537,3.071c-1.715,6.942-3.409,13.83-5.076,20.653c50.168-2.226,178.132-7.648,247.861-8.275
	l311.216-2.796c89.205-0.798,181.457-1.63,270.696,17.414c5.538,1.185,14.092,12.53,14.085,18.677l-0.068,49.815
	c-0.012,8.716-9.274,18.792-13.255,22.72c-8.424,8.31-12.618,8.66-14.186,8.66c-0.077,0-755.642-9.86-838.828-10.992
	c-1.036,4.583-2.05,9.108-3.042,13.572c89.303,12.313,330.583,14.843,544.314,17.083c138.452,1.451,269.491,2.825,337.82,6.759
	C1129.084,956.981,1132.542,923.592,1134.496,890.473z"/>
</svg>
